<?xml version="1.0" encoding="UTF-8" standalone="no"?>
<!DOCTYPE svg PUBLIC "-//W3C//DTD SVG 1.1//EN" "http://www.w3.org/Graphics/SVG/1.1/DTD/svg11.dtd">
<svg version="1.1" xmlns="http://www.w3.org/2000/svg" xmlns:xlink="http://www.w3.org/1999/xlink" preserveAspectRatio="xMidYMid meet" viewBox="0 0 1024 1024" width="1024" height="1024"><defs><path d="M522.49 384.42L527.65 384.95L532.75 385.68L537.78 386.6L542.74 387.72L547.63 389.03L552.44 390.53L557.17 392.21L561.8 394.07L566.35 396.1L570.8 398.3L575.15 400.66L579.4 403.19L583.55 405.87L587.57 408.71L591.49 411.7L595.28 414.83L598.95 418.1L602.49 421.51L605.9 425.05L609.17 428.72L612.3 432.51L615.29 436.43L618.13 440.45L620.81 444.6L623.34 448.85L625.7 453.2L627.9 457.65L629.93 462.2L631.79 466.83L633.47 471.56L634.97 476.37L636.28 481.26L637.4 486.22L638.32 491.25L639.05 496.35L639.58 501.51L639.89 506.73L640 512L639.89 517.27L639.58 522.49L639.05 527.65L638.32 532.75L637.4 537.78L636.28 542.74L634.97 547.63L633.47 552.44L631.79 557.17L629.93 561.8L627.9 566.35L625.7 570.8L623.34 575.15L620.81 579.4L618.13 583.55L615.29 587.57L612.3 591.49L609.17 595.28L605.9 598.95L602.49 602.49L598.95 605.9L595.28 609.17L591.49 612.3L587.57 615.29L583.55 618.13L579.4 620.81L575.15 623.34L570.8 625.7L566.35 627.9L561.8 629.93L557.17 631.79L552.44 633.47L547.63 634.97L542.74 636.28L537.78 637.4L532.75 638.32L527.65 639.05L522.49 639.58L517.27 639.89L512 640L506.73 639.89L501.51 639.58L496.35 639.05L491.25 638.32L486.22 637.4L481.26 636.28L476.37 634.97L471.56 633.47L466.83 631.79L462.2 629.93L457.65 627.9L453.2 625.7L448.85 623.34L444.6 620.81L440.45 618.13L436.43 615.29L432.51 612.3L428.72 609.17L425.05 605.9L421.51 602.49L418.1 598.95L414.83 595.28L411.7 591.49L408.71 587.57L405.87 583.55L403.19 579.4L400.66 575.15L398.3 570.8L396.1 566.35L394.07 561.8L392.21 557.17L390.53 552.44L389.03 547.63L387.72 542.74L386.6 537.78L385.68 532.75L384.95 527.65L384.42 522.49L384.11 517.27L384 512L384.11 506.73L384.42 501.51L384.95 496.35L385.68 491.25L386.6 486.22L387.72 481.26L389.03 476.37L390.53 471.56L392.21 466.83L394.07 462.2L396.1 457.65L398.3 453.2L400.66 448.85L403.19 444.6L405.87 440.45L408.71 436.43L411.7 432.51L414.83 428.72L418.1 425.05L421.51 421.51L425.05 418.1L428.72 414.83L432.51 411.7L436.43 408.71L440.45 405.87L444.6 403.19L448.85 400.66L453.2 398.3L457.65 396.1L462.2 394.07L466.83 392.21L471.56 390.53L476.37 389.03L481.26 387.72L486.22 386.6L491.25 385.68L496.35 384.95L501.51 384.42L506.73 384.11L512 384L517.27 384.11L522.49 384.42ZM541.38 430.17L540.09 430.3L538.81 430.48L537.55 430.71L536.31 430.99L535.09 431.32L533.89 431.69L532.71 432.11L531.55 432.58L530.41 433.08L529.3 433.63L528.21 434.23L527.15 434.86L526.11 435.53L525.11 436.24L524.13 436.98L523.18 437.77L522.26 438.59L521.38 439.44L520.52 440.32L519.71 441.24L518.92 442.19L518.18 443.17L517.47 444.17L516.8 445.21L516.17 446.27L515.57 447.36L515.02 448.47L514.52 449.61L514.05 450.77L513.63 451.95L513.26 453.15L512.93 454.37L512.65 455.61L512.42 456.87L512.24 458.15L512.11 459.44L512.03 460.74L512 462.06L512.03 463.38L512.11 464.68L512.24 465.97L512.42 467.25L512.65 468.51L512.93 469.75L513.26 470.97L513.63 472.17L514.05 473.35L514.52 474.51L515.02 475.65L515.57 476.76L516.17 477.85L516.8 478.91L517.47 479.95L518.18 480.95L518.92 481.93L519.71 482.88L520.52 483.8L521.38 484.68L522.26 485.54L523.18 486.35L524.13 487.14L525.11 487.88L526.11 488.59L527.15 489.26L528.21 489.9L529.3 490.49L530.41 491.04L531.55 491.54L532.71 492.01L533.89 492.43L535.09 492.8L536.31 493.13L537.55 493.41L538.81 493.64L540.09 493.82L541.38 493.95L542.68 494.03L544 494.06L545.32 494.03L546.62 493.95L547.91 493.82L549.19 493.64L550.45 493.41L551.69 493.13L552.91 492.8L554.11 492.43L555.29 492.01L556.45 491.54L557.59 491.04L558.7 490.49L559.79 489.9L560.85 489.26L561.89 488.59L562.89 487.88L563.87 487.14L564.82 486.35L565.74 485.54L566.62 484.68L567.48 483.8L568.29 482.88L569.08 481.93L569.82 480.95L570.53 479.95L571.2 478.91L571.83 477.85L572.43 476.76L572.98 475.65L573.48 474.51L573.95 473.35L574.37 472.17L574.74 470.97L575.07 469.75L575.35 468.51L575.58 467.25L575.76 465.97L575.89 464.68L575.97 463.38L576 462.06L575.97 460.74L575.89 459.44L575.76 458.15L575.58 456.87L575.35 455.61L575.07 454.37L574.74 453.15L574.37 451.95L573.95 450.77L573.48 449.61L572.98 448.47L572.43 447.36L571.83 446.27L571.2 445.21L570.53 444.17L569.82 443.17L569.08 442.19L568.29 441.24L567.48 440.32L566.62 439.44L565.74 438.59L564.82 437.77L563.87 436.98L562.89 436.24L561.89 435.53L560.85 434.86L559.79 434.23L558.7 433.63L557.59 433.08L556.45 432.58L555.29 432.11L554.11 431.69L552.91 431.32L551.69 430.99L550.45 430.71L549.19 430.48L547.91 430.3L546.62 430.17L545.32 430.09L544 430.06L542.68 430.09L541.38 430.17Z" id="a2oqWh94fw"></path><path d="M794.05 113.01L799.21 113.53L804.3 114.26L809.34 115.18L814.3 116.3L819.19 117.61L823.99 119.11L828.72 120.79L833.36 122.65L837.9 124.68L842.36 126.88L846.71 129.24L850.96 131.77L855.1 134.45L859.13 137.29L863.04 140.28L866.84 143.41L870.51 146.68L874.05 150.09L877.45 153.63L880.73 157.3L883.86 161.09L886.84 165.01L889.68 169.04L892.37 173.18L894.89 177.43L897.26 181.78L899.46 186.23L901.49 190.78L903.35 195.42L905.02 200.14L906.52 204.95L907.83 209.84L908.95 214.8L909.88 219.83L910.6 224.93L911.13 230.09L911.45 235.31L911.55 240.58L911.45 245.85L911.13 251.07L910.6 256.23L909.88 261.33L908.95 266.36L907.83 271.33L906.52 276.21L905.02 281.02L903.35 285.75L901.49 290.38L899.46 294.93L897.26 299.38L894.89 303.74L892.37 307.98L889.68 312.13L886.84 316.16L883.86 320.07L880.73 323.86L877.45 327.53L874.05 331.07L870.51 334.48L866.84 337.75L863.04 340.88L859.13 343.87L855.1 346.71L850.96 349.39L846.71 351.92L842.36 354.28L837.9 356.49L833.36 358.52L828.72 360.37L823.99 362.05L819.19 363.55L814.3 364.86L809.34 365.98L804.3 366.9L799.21 367.63L794.05 368.16L788.83 368.47L783.55 368.58L778.28 368.47L773.06 368.16L767.9 367.63L762.8 366.9L757.77 365.98L752.81 364.86L747.92 363.55L743.11 362.05L738.39 360.37L733.75 358.52L729.2 356.49L724.75 354.28L720.4 351.92L716.15 349.39L712.01 346.71L707.98 343.87L704.07 340.88L700.27 337.75L696.6 334.48L693.06 331.07L689.65 327.53L686.38 323.86L683.25 320.07L680.26 316.16L677.43 312.13L674.74 307.98L672.22 303.74L669.85 299.38L667.65 294.93L665.62 290.38L663.76 285.75L662.08 281.02L660.59 276.21L659.28 271.33L658.16 266.36L657.23 261.33L656.5 256.23L655.98 251.07L655.66 245.85L655.55 240.58L655.66 235.31L655.98 230.09L656.5 224.93L657.23 219.83L658.16 214.8L659.28 209.84L660.59 204.95L662.08 200.14L663.76 195.42L665.62 190.78L667.65 186.23L669.85 181.78L672.22 177.43L674.74 173.18L677.43 169.04L680.26 165.01L683.25 161.09L686.38 157.3L689.65 153.63L693.06 150.09L696.6 146.68L700.27 143.41L704.07 140.28L707.98 137.29L712.01 134.45L716.15 131.77L720.4 129.24L724.75 126.88L729.2 124.68L733.75 122.65L738.39 120.79L743.11 119.11L747.92 117.61L752.81 116.3L757.77 115.18L762.8 114.26L767.9 113.53L773.06 113.01L778.28 112.69L783.55 112.58L788.83 112.69L794.05 113.01ZM812.93 158.75L811.64 158.88L810.37 159.06L809.11 159.29L807.87 159.57L806.65 159.9L805.44 160.27L804.26 160.69L803.1 161.16L801.97 161.67L800.85 162.22L799.77 162.81L798.7 163.44L797.67 164.11L796.66 164.82L795.68 165.57L794.73 166.35L793.82 167.17L792.93 168.02L792.08 168.9L791.26 169.82L790.48 170.77L789.73 171.75L789.02 172.76L788.35 173.79L787.72 174.85L787.13 175.94L786.58 177.05L786.07 178.19L785.61 179.35L785.19 180.53L784.81 181.73L784.48 182.96L784.2 184.2L783.97 185.45L783.79 186.73L783.66 188.02L783.58 189.32L783.55 190.64L783.58 191.96L783.66 193.26L783.79 194.55L783.97 195.83L784.2 197.09L784.48 198.33L784.81 199.55L785.19 200.75L785.61 201.93L786.07 203.09L786.58 204.23L787.13 205.34L787.72 206.43L788.35 207.49L789.02 208.53L789.73 209.54L790.48 210.51L791.26 211.46L792.08 212.38L792.93 213.26L793.82 214.12L794.73 214.93L795.68 215.72L796.66 216.46L797.67 217.17L798.7 217.84L799.77 218.48L800.85 219.07L801.97 219.62L803.1 220.13L804.26 220.59L805.44 221.01L806.65 221.38L807.87 221.71L809.11 221.99L810.37 222.22L811.64 222.4L812.93 222.54L814.24 222.61L815.55 222.64L816.87 222.61L818.18 222.54L819.47 222.4L820.74 222.22L822 221.99L823.24 221.71L824.46 221.38L825.66 221.01L826.85 220.59L828 220.13L829.14 219.62L830.25 219.07L831.34 218.48L832.41 217.84L833.44 217.17L834.45 216.46L835.43 215.72L836.37 214.93L837.29 214.12L838.18 213.26L839.03 212.38L839.85 211.46L840.63 210.51L841.38 209.54L842.09 208.53L842.76 207.49L843.39 206.43L843.98 205.34L844.53 204.23L845.04 203.09L845.5 201.93L845.92 200.75L846.3 199.55L846.62 198.33L846.9 197.09L847.13 195.83L847.32 194.55L847.45 193.26L847.53 191.96L847.55 190.64L847.53 189.32L847.45 188.02L847.32 186.73L847.13 185.45L846.9 184.2L846.62 182.96L846.3 181.73L845.92 180.53L845.5 179.35L845.04 178.19L844.53 177.05L843.98 175.94L843.39 174.85L842.76 173.79L842.09 172.76L841.38 171.75L840.63 170.77L839.85 169.82L839.03 168.9L838.18 168.02L837.29 167.17L836.37 166.35L835.43 165.57L834.45 164.82L833.44 164.11L832.41 163.44L831.34 162.81L830.25 162.22L829.14 161.67L828 161.16L826.85 160.69L825.66 160.27L824.46 159.9L823.24 159.57L822 159.29L820.74 159.06L819.47 158.88L818.18 158.75L816.87 158.67L815.55 158.64L814.24 158.67L812.93 158.75Z" id="b19jxzDU00"></path><path d="M522.49 0.42L527.65 0.95L532.75 1.68L537.78 2.6L542.74 3.72L547.63 5.03L552.44 6.53L557.17 8.21L561.8 10.07L566.35 12.1L570.8 14.3L575.15 16.66L579.4 19.19L583.55 21.87L587.57 24.71L591.49 27.7L595.28 30.83L598.95 34.1L602.49 37.51L605.9 41.05L609.17 44.72L612.3 48.51L615.29 52.43L618.13 56.45L620.81 60.6L623.34 64.85L625.7 69.2L627.9 73.65L629.93 78.2L631.79 82.83L633.47 87.56L634.97 92.37L636.28 97.26L637.4 102.22L638.32 107.25L639.05 112.35L639.58 117.51L639.89 122.73L640 128L639.89 133.27L639.58 138.49L639.05 143.65L638.32 148.75L637.4 153.78L636.28 158.74L634.97 163.63L633.47 168.44L631.79 173.17L629.93 177.8L627.9 182.35L625.7 186.8L623.34 191.15L620.81 195.4L618.13 199.55L615.29 203.57L612.3 207.49L609.17 211.28L605.9 214.95L602.49 218.49L598.95 221.9L595.28 225.17L591.49 228.3L587.57 231.29L583.55 234.13L579.4 236.81L575.15 239.34L570.8 241.7L566.35 243.9L561.8 245.93L557.17 247.79L552.44 249.47L547.63 250.97L542.74 252.28L537.78 253.4L532.75 254.32L527.65 255.05L522.49 255.58L517.27 255.89L512 256L506.73 255.89L501.51 255.58L496.35 255.05L491.25 254.32L486.22 253.4L481.26 252.28L476.37 250.97L471.56 249.47L466.83 247.79L462.2 245.93L457.65 243.9L453.2 241.7L448.85 239.34L444.6 236.81L440.45 234.13L436.43 231.29L432.51 228.3L428.72 225.17L425.05 221.9L421.51 218.49L418.1 214.95L414.83 211.28L411.7 207.49L408.71 203.57L405.87 199.55L403.19 195.4L400.66 191.15L398.3 186.8L396.1 182.35L394.07 177.8L392.21 173.17L390.53 168.44L389.03 163.63L387.72 158.74L386.6 153.78L385.68 148.75L384.95 143.65L384.42 138.49L384.11 133.27L384 128L384.11 122.73L384.42 117.51L384.95 112.35L385.68 107.25L386.6 102.22L387.72 97.26L389.03 92.37L390.53 87.56L392.21 82.83L394.07 78.2L396.1 73.65L398.3 69.2L400.66 64.85L403.19 60.6L405.87 56.45L408.71 52.43L411.7 48.51L414.83 44.72L418.1 41.05L421.51 37.51L425.05 34.1L428.72 30.83L432.51 27.7L436.43 24.71L440.45 21.87L444.6 19.19L448.85 16.66L453.2 14.3L457.65 12.1L462.2 10.07L466.83 8.21L471.56 6.53L476.37 5.03L481.26 3.72L486.22 2.6L491.25 1.68L496.35 0.95L501.51 0.42L506.73 0.11L512 0L517.27 0.11L522.49 0.42ZM541.38 46.17L540.09 46.3L538.81 46.48L537.55 46.71L536.31 46.99L535.09 47.32L533.89 47.69L532.71 48.11L531.55 48.58L530.41 49.08L529.3 49.63L528.21 50.23L527.15 50.86L526.11 51.53L525.11 52.24L524.13 52.98L523.18 53.77L522.26 54.59L521.38 55.44L520.52 56.32L519.71 57.24L518.92 58.19L518.18 59.17L517.47 60.17L516.8 61.21L516.17 62.27L515.57 63.36L515.02 64.47L514.52 65.61L514.05 66.77L513.63 67.95L513.26 69.15L512.93 70.37L512.65 71.61L512.42 72.87L512.24 74.15L512.11 75.44L512.03 76.74L512 78.06L512.03 79.38L512.11 80.68L512.24 81.97L512.42 83.25L512.65 84.51L512.93 85.75L513.26 86.97L513.63 88.17L514.05 89.35L514.52 90.51L515.02 91.65L515.57 92.76L516.17 93.85L516.8 94.91L517.47 95.95L518.18 96.95L518.92 97.93L519.71 98.88L520.52 99.8L521.38 100.68L522.26 101.54L523.18 102.35L524.13 103.14L525.11 103.88L526.11 104.59L527.15 105.26L528.21 105.9L529.3 106.49L530.41 107.04L531.55 107.54L532.71 108.01L533.89 108.43L535.09 108.8L536.31 109.13L537.55 109.41L538.81 109.64L540.09 109.82L541.38 109.95L542.68 110.03L544 110.06L545.32 110.03L546.62 109.95L547.91 109.82L549.19 109.64L550.45 109.41L551.69 109.13L552.91 108.8L554.11 108.43L555.29 108.01L556.45 107.54L557.59 107.04L558.7 106.49L559.79 105.9L560.85 105.26L561.89 104.59L562.89 103.88L563.87 103.14L564.82 102.35L565.74 101.54L566.62 100.68L567.48 99.8L568.29 98.88L569.08 97.93L569.82 96.95L570.53 95.95L571.2 94.91L571.83 93.85L572.43 92.76L572.98 91.65L573.48 90.51L573.95 89.35L574.37 88.17L574.74 86.97L575.07 85.75L575.35 84.51L575.58 83.25L575.76 81.97L575.89 80.68L575.97 79.38L576 78.06L575.97 76.74L575.89 75.44L575.76 74.15L575.58 72.87L575.35 71.61L575.07 70.37L574.74 69.15L574.37 67.95L573.95 66.77L573.48 65.61L572.98 64.47L572.43 63.36L571.83 62.27L571.2 61.21L570.53 60.17L569.82 59.17L569.08 58.19L568.29 57.24L567.48 56.32L566.62 55.44L565.74 54.59L564.82 53.77L563.87 52.98L562.89 52.24L561.89 51.53L560.85 50.86L559.79 50.23L558.7 49.63L557.59 49.08L556.45 48.58L555.29 48.11L554.11 47.69L552.91 47.32L551.69 46.99L550.45 46.71L549.19 46.48L547.91 46.3L546.62 46.17L545.32 46.09L544 46.06L542.68 46.09L541.38 46.17Z" id="b56EVELFt3"></path><path d="M906.49 384.42L911.65 384.95L916.75 385.68L921.78 386.6L926.74 387.72L931.63 389.03L936.44 390.53L941.17 392.21L945.8 394.07L950.35 396.1L954.8 398.3L959.15 400.66L963.4 403.19L967.55 405.87L971.57 408.71L975.49 411.7L979.28 414.83L982.95 418.1L986.49 421.51L989.9 425.05L993.17 428.72L996.3 432.51L999.29 436.43L1002.13 440.45L1004.81 444.6L1007.34 448.85L1009.7 453.2L1011.9 457.65L1013.93 462.2L1015.79 466.83L1017.47 471.56L1018.97 476.37L1020.28 481.26L1021.4 486.22L1022.32 491.25L1023.05 496.35L1023.58 501.51L1023.89 506.73L1024 512L1023.89 517.27L1023.58 522.49L1023.05 527.65L1022.32 532.75L1021.4 537.78L1020.28 542.74L1018.97 547.63L1017.47 552.44L1015.79 557.17L1013.93 561.8L1011.9 566.35L1009.7 570.8L1007.34 575.15L1004.81 579.4L1002.13 583.55L999.29 587.57L996.3 591.49L993.17 595.28L989.9 598.95L986.49 602.49L982.95 605.9L979.28 609.17L975.49 612.3L971.57 615.29L967.55 618.13L963.4 620.81L959.15 623.34L954.8 625.7L950.35 627.9L945.8 629.93L941.17 631.79L936.44 633.47L931.63 634.97L926.74 636.28L921.78 637.4L916.75 638.32L911.65 639.05L906.49 639.58L901.27 639.89L896 640L890.73 639.89L885.51 639.58L880.35 639.05L875.25 638.32L870.22 637.4L865.26 636.28L860.37 634.97L855.56 633.47L850.83 631.79L846.2 629.93L841.65 627.9L837.2 625.7L832.85 623.34L828.6 620.81L824.45 618.13L820.43 615.29L816.51 612.3L812.72 609.17L809.05 605.9L805.51 602.49L802.1 598.95L798.83 595.28L795.7 591.49L792.71 587.57L789.87 583.55L787.19 579.4L784.66 575.15L782.3 570.8L780.1 566.35L778.07 561.8L776.21 557.17L774.53 552.44L773.03 547.63L771.72 542.74L770.6 537.78L769.68 532.75L768.95 527.65L768.42 522.49L768.11 517.27L768 512L768.11 506.73L768.42 501.51L768.95 496.35L769.68 491.25L770.6 486.22L771.72 481.26L773.03 476.37L774.53 471.56L776.21 466.83L778.07 462.2L780.1 457.65L782.3 453.2L784.66 448.85L787.19 444.6L789.87 440.45L792.71 436.43L795.7 432.51L798.83 428.72L802.1 425.05L805.51 421.51L809.05 418.1L812.72 414.83L816.51 411.7L820.43 408.71L824.45 405.87L828.6 403.19L832.85 400.66L837.2 398.3L841.65 396.1L846.2 394.07L850.83 392.21L855.56 390.53L860.37 389.03L865.26 387.72L870.22 386.6L875.25 385.68L880.35 384.95L885.51 384.42L890.73 384.11L896 384L901.27 384.11L906.49 384.42ZM925.38 430.17L924.09 430.3L922.81 430.48L921.55 430.71L920.31 430.99L919.09 431.32L917.89 431.69L916.71 432.11L915.55 432.58L914.41 433.08L913.3 433.63L912.21 434.23L911.15 434.86L910.11 435.53L909.11 436.24L908.13 436.98L907.18 437.77L906.26 438.59L905.38 439.44L904.52 440.32L903.71 441.24L902.92 442.19L902.18 443.17L901.47 444.17L900.8 445.21L900.17 446.27L899.57 447.36L899.02 448.47L898.52 449.61L898.05 450.77L897.63 451.95L897.26 453.15L896.93 454.37L896.65 455.61L896.42 456.87L896.24 458.15L896.11 459.44L896.03 460.74L896 462.06L896.03 463.38L896.11 464.68L896.24 465.97L896.42 467.25L896.65 468.51L896.93 469.75L897.26 470.97L897.63 472.17L898.05 473.35L898.52 474.51L899.02 475.65L899.57 476.76L900.17 477.85L900.8 478.91L901.47 479.95L902.18 480.95L902.92 481.93L903.71 482.88L904.52 483.8L905.38 484.68L906.26 485.54L907.18 486.35L908.13 487.14L909.11 487.88L910.11 488.59L911.15 489.26L912.21 489.9L913.3 490.49L914.41 491.04L915.55 491.54L916.71 492.01L917.89 492.43L919.09 492.8L920.31 493.13L921.55 493.41L922.81 493.64L924.09 493.82L925.38 493.95L926.68 494.03L928 494.06L929.32 494.03L930.62 493.95L931.91 493.82L933.19 493.64L934.45 493.41L935.69 493.13L936.91 492.8L938.11 492.43L939.29 492.01L940.45 491.54L941.59 491.04L942.7 490.49L943.79 489.9L944.85 489.26L945.89 488.59L946.89 487.88L947.87 487.14L948.82 486.35L949.74 485.54L950.62 484.68L951.48 483.8L952.29 482.88L953.08 481.93L953.82 480.95L954.53 479.95L955.2 478.91L955.83 477.85L956.43 476.76L956.98 475.65L957.48 474.51L957.95 473.35L958.37 472.17L958.74 470.97L959.07 469.75L959.35 468.51L959.58 467.25L959.76 465.97L959.89 464.68L959.97 463.38L960 462.06L959.97 460.74L959.89 459.44L959.76 458.15L959.58 456.87L959.35 455.61L959.07 454.37L958.74 453.15L958.37 451.95L957.95 450.77L957.48 449.61L956.98 448.47L956.43 447.36L955.83 446.27L955.2 445.21L954.53 444.17L953.82 443.17L953.08 442.19L952.29 441.24L951.48 440.32L950.62 439.44L949.74 438.59L948.82 437.77L947.87 436.98L946.89 436.24L945.89 435.53L944.85 434.86L943.79 434.23L942.7 433.63L941.59 433.08L940.45 432.58L939.29 432.11L938.11 431.69L936.91 431.32L935.69 430.99L934.45 430.71L933.19 430.48L931.91 430.3L930.62 430.17L929.32 430.09L928 430.06L926.68 430.09L925.38 430.17Z" id="aikhrgvKF"></path><path d="M794 655.98L799.16 656.5L804.25 657.23L809.29 658.16L814.25 659.28L819.14 660.59L823.94 662.08L828.67 663.76L833.31 665.62L837.85 667.65L842.31 669.85L846.66 672.22L850.91 674.74L855.05 677.43L859.08 680.26L862.99 683.25L866.79 686.38L870.45 689.65L874 693.06L877.4 696.6L880.68 700.27L883.81 704.07L886.79 707.98L889.63 712.01L892.32 716.15L894.84 720.4L897.21 724.75L899.41 729.2L901.44 733.75L903.3 738.39L904.97 743.11L906.47 747.92L907.78 752.81L908.9 757.77L909.83 762.8L910.55 767.9L911.08 773.06L911.4 778.28L911.5 783.55L911.4 788.83L911.08 794.05L910.55 799.21L909.83 804.3L908.9 809.34L907.78 814.3L906.47 819.19L904.97 823.99L903.3 828.72L901.44 833.36L899.41 837.9L897.21 842.36L894.84 846.71L892.32 850.96L889.63 855.1L886.79 859.13L883.81 863.04L880.68 866.84L877.4 870.51L874 874.05L870.45 877.45L866.79 880.73L862.99 883.86L859.08 886.84L855.05 889.68L850.91 892.37L846.66 894.89L842.31 897.26L837.85 899.46L833.31 901.49L828.67 903.35L823.94 905.02L819.14 906.52L814.25 907.83L809.29 908.95L804.25 909.88L799.16 910.6L794 911.13L788.78 911.45L783.5 911.55L778.23 911.45L773.01 911.13L767.85 910.6L762.75 909.88L757.72 908.95L752.76 907.83L747.87 906.52L743.06 905.02L738.34 903.35L733.7 901.49L729.15 899.46L724.7 897.26L720.35 894.89L716.1 892.37L711.96 889.68L707.93 886.84L704.02 883.86L700.22 880.73L696.55 877.45L693.01 874.05L689.6 870.51L686.33 866.84L683.2 863.04L680.21 859.13L677.38 855.1L674.69 850.96L672.17 846.71L669.8 842.36L667.6 837.9L665.57 833.36L663.71 828.72L662.03 823.99L660.54 819.19L659.23 814.3L658.11 809.34L657.18 804.3L656.45 799.21L655.93 794.05L655.61 788.83L655.5 783.55L655.61 778.28L655.93 773.06L656.45 767.9L657.18 762.8L658.11 757.77L659.23 752.81L660.54 747.92L662.03 743.11L663.71 738.39L665.57 733.75L667.6 729.2L669.8 724.75L672.17 720.4L674.69 716.15L677.38 712.01L680.21 707.98L683.2 704.07L686.33 700.27L689.6 696.6L693.01 693.06L696.55 689.65L700.22 686.38L704.02 683.25L707.93 680.26L711.96 677.43L716.1 674.74L720.35 672.22L724.7 669.85L729.15 667.65L733.7 665.62L738.34 663.76L743.06 662.08L747.87 660.59L752.76 659.28L757.72 658.16L762.75 657.23L767.85 656.5L773.01 655.98L778.23 655.66L783.5 655.55L788.78 655.66L794 655.98ZM812.88 701.72L811.59 701.85L810.32 702.03L809.06 702.27L807.82 702.55L806.6 702.87L805.39 703.25L804.21 703.67L803.05 704.13L801.92 704.64L800.8 705.19L799.72 705.78L798.65 706.41L797.62 707.08L796.61 707.79L795.63 708.54L794.68 709.32L793.77 710.14L792.88 710.99L792.03 711.88L791.21 712.79L790.43 713.74L789.68 714.72L788.97 715.73L788.3 716.76L787.67 717.83L787.08 718.91L786.53 720.03L786.02 721.16L785.56 722.32L785.14 723.5L784.76 724.71L784.43 725.93L784.15 727.17L783.92 728.43L783.74 729.7L783.61 730.99L783.53 732.3L783.5 733.61L783.53 734.93L783.61 736.24L783.74 737.53L783.92 738.8L784.15 740.06L784.43 741.3L784.76 742.52L785.14 743.72L785.56 744.91L786.02 746.07L786.53 747.2L787.08 748.32L787.67 749.4L788.3 750.47L788.97 751.5L789.68 752.51L790.43 753.49L791.21 754.44L792.03 755.35L792.88 756.24L793.77 757.09L794.68 757.91L795.63 758.69L796.61 759.44L797.62 760.15L798.65 760.82L799.72 761.45L800.8 762.04L801.92 762.59L803.05 763.1L804.21 763.56L805.39 763.98L806.6 764.36L807.82 764.68L809.06 764.96L810.32 765.2L811.59 765.38L812.88 765.51L814.19 765.59L815.5 765.61L816.82 765.59L818.13 765.51L819.42 765.38L820.69 765.2L821.95 764.96L823.19 764.68L824.41 764.36L825.61 763.98L826.8 763.56L827.95 763.1L829.09 762.59L830.2 762.04L831.29 761.45L832.35 760.82L833.39 760.15L834.4 759.44L835.38 758.69L836.32 757.91L837.24 757.09L838.13 756.24L838.98 755.35L839.8 754.44L840.58 753.49L841.33 752.51L842.04 751.5L842.71 750.47L843.34 749.4L843.93 748.32L844.48 747.2L844.99 746.07L845.45 744.91L845.87 743.72L846.25 742.52L846.57 741.3L846.85 740.06L847.08 738.8L847.27 737.53L847.4 736.24L847.48 734.93L847.5 733.61L847.48 732.3L847.4 730.99L847.27 729.7L847.08 728.43L846.85 727.17L846.57 725.93L846.25 724.71L845.87 723.5L845.45 722.32L844.99 721.16L844.48 720.03L843.93 718.91L843.34 717.83L842.71 716.76L842.04 715.73L841.33 714.72L840.58 713.74L839.8 712.79L838.98 711.88L838.13 710.99L837.24 710.14L836.32 709.32L835.38 708.54L834.4 707.79L833.39 707.08L832.35 706.41L831.29 705.78L830.2 705.19L829.09 704.64L827.95 704.13L826.8 703.67L825.61 703.25L824.41 702.87L823.19 702.55L821.95 702.27L820.69 702.03L819.42 701.85L818.13 701.72L816.82 701.64L815.5 701.61L814.19 701.64L812.88 701.72Z" id="c1E9Bn5C89"></path><path d="M522.49 768.42L527.65 768.95L532.75 769.68L537.78 770.6L542.74 771.72L547.63 773.03L552.44 774.53L557.17 776.21L561.8 778.07L566.35 780.1L570.8 782.3L575.15 784.66L579.4 787.19L583.55 789.87L587.57 792.71L591.49 795.7L595.28 798.83L598.95 802.1L602.49 805.51L605.9 809.05L609.17 812.72L612.3 816.51L615.29 820.43L618.13 824.45L620.81 828.6L623.34 832.85L625.7 837.2L627.9 841.65L629.93 846.2L631.79 850.83L633.47 855.56L634.97 860.37L636.28 865.26L637.4 870.22L638.32 875.25L639.05 880.35L639.58 885.51L639.89 890.73L640 896L639.89 901.27L639.58 906.49L639.05 911.65L638.32 916.75L637.4 921.78L636.28 926.74L634.97 931.63L633.47 936.44L631.79 941.17L629.93 945.8L627.9 950.35L625.7 954.8L623.34 959.15L620.81 963.4L618.13 967.55L615.29 971.57L612.3 975.49L609.17 979.28L605.9 982.95L602.49 986.49L598.95 989.9L595.28 993.17L591.49 996.3L587.57 999.29L583.55 1002.13L579.4 1004.81L575.15 1007.34L570.8 1009.7L566.35 1011.9L561.8 1013.93L557.17 1015.79L552.44 1017.47L547.63 1018.97L542.74 1020.28L537.78 1021.4L532.75 1022.32L527.65 1023.05L522.49 1023.58L517.27 1023.89L512 1024L506.73 1023.89L501.51 1023.58L496.35 1023.05L491.25 1022.32L486.22 1021.4L481.26 1020.28L476.37 1018.97L471.56 1017.47L466.83 1015.79L462.2 1013.93L457.65 1011.9L453.2 1009.7L448.85 1007.34L444.6 1004.81L440.45 1002.13L436.43 999.29L432.51 996.3L428.72 993.17L425.05 989.9L421.51 986.49L418.1 982.95L414.83 979.28L411.7 975.49L408.71 971.57L405.87 967.55L403.19 963.4L400.66 959.15L398.3 954.8L396.1 950.35L394.07 945.8L392.21 941.17L390.53 936.44L389.03 931.63L387.72 926.74L386.6 921.78L385.68 916.75L384.95 911.65L384.42 906.49L384.11 901.27L384 896L384.11 890.73L384.42 885.51L384.95 880.35L385.68 875.25L386.6 870.22L387.72 865.26L389.03 860.37L390.53 855.56L392.21 850.83L394.07 846.2L396.1 841.65L398.3 837.2L400.66 832.85L403.19 828.6L405.87 824.45L408.71 820.43L411.7 816.51L414.83 812.72L418.1 809.05L421.51 805.51L425.05 802.1L428.72 798.83L432.51 795.7L436.43 792.71L440.45 789.87L444.6 787.19L448.85 784.66L453.2 782.3L457.65 780.1L462.2 778.07L466.83 776.21L471.56 774.53L476.37 773.03L481.26 771.72L486.22 770.6L491.25 769.68L496.35 768.95L501.51 768.42L506.73 768.11L512 768L517.27 768.11L522.49 768.42ZM541.38 814.17L540.09 814.3L538.81 814.48L537.55 814.71L536.31 814.99L535.09 815.32L533.89 815.69L532.71 816.11L531.55 816.58L530.41 817.08L529.3 817.63L528.21 818.23L527.15 818.86L526.11 819.53L525.11 820.24L524.13 820.98L523.18 821.77L522.26 822.59L521.38 823.44L520.52 824.32L519.71 825.24L518.92 826.19L518.18 827.17L517.47 828.17L516.8 829.21L516.17 830.27L515.57 831.36L515.02 832.47L514.52 833.61L514.05 834.77L513.63 835.95L513.26 837.15L512.93 838.37L512.65 839.61L512.42 840.87L512.24 842.15L512.11 843.44L512.03 844.74L512 846.06L512.03 847.38L512.11 848.68L512.24 849.97L512.42 851.25L512.65 852.51L512.93 853.75L513.26 854.97L513.63 856.17L514.05 857.35L514.52 858.51L515.02 859.65L515.57 860.76L516.17 861.85L516.8 862.91L517.47 863.95L518.18 864.95L518.92 865.93L519.71 866.88L520.52 867.8L521.38 868.68L522.26 869.54L523.18 870.35L524.13 871.14L525.11 871.88L526.11 872.59L527.15 873.26L528.21 873.9L529.3 874.49L530.41 875.04L531.55 875.54L532.71 876.01L533.89 876.43L535.09 876.8L536.31 877.13L537.55 877.41L538.81 877.64L540.09 877.82L541.38 877.95L542.68 878.03L544 878.06L545.32 878.03L546.62 877.95L547.91 877.82L549.19 877.64L550.45 877.41L551.69 877.13L552.91 876.8L554.11 876.43L555.29 876.01L556.45 875.54L557.59 875.04L558.7 874.49L559.79 873.9L560.85 873.26L561.89 872.59L562.89 871.88L563.87 871.14L564.82 870.35L565.74 869.54L566.62 868.68L567.48 867.8L568.29 866.88L569.08 865.93L569.82 864.95L570.53 863.95L571.2 862.91L571.83 861.85L572.43 860.76L572.98 859.65L573.48 858.51L573.95 857.35L574.37 856.17L574.74 854.97L575.07 853.75L575.35 852.51L575.58 851.25L575.76 849.97L575.89 848.68L575.97 847.38L576 846.06L575.97 844.74L575.89 843.44L575.76 842.15L575.58 840.87L575.35 839.61L575.07 838.37L574.74 837.15L574.37 835.95L573.95 834.77L573.48 833.61L572.98 832.47L572.43 831.36L571.83 830.27L571.2 829.21L570.53 828.17L569.82 827.17L569.08 826.19L568.29 825.24L567.48 824.32L566.62 823.44L565.74 822.59L564.82 821.77L563.87 820.98L562.89 820.24L561.89 819.53L560.85 818.86L559.79 818.23L558.7 817.63L557.59 817.08L556.45 816.58L555.29 816.11L554.11 815.69L552.91 815.32L551.69 814.99L550.45 814.71L549.19 814.48L547.91 814.3L546.62 814.17L545.32 814.09L544 814.06L542.68 814.09L541.38 814.17Z" id="a2z6oFERVl"></path><path d="M250.94 655.93L256.1 656.45L261.2 657.18L266.23 658.11L271.19 659.23L276.08 660.54L280.89 662.03L285.61 663.71L290.25 665.57L294.8 667.6L299.25 669.8L303.6 672.17L307.85 674.69L311.99 677.38L316.02 680.21L319.93 683.2L323.73 686.33L327.4 689.6L330.94 693.01L334.35 696.55L337.62 700.22L340.75 704.02L343.74 707.93L346.57 711.96L349.26 716.1L351.78 720.35L354.15 724.7L356.35 729.15L358.38 733.7L360.24 738.34L361.92 743.06L363.41 747.87L364.72 752.76L365.84 757.72L366.77 762.75L367.5 767.85L368.02 773.01L368.34 778.23L368.45 783.5L368.34 788.78L368.02 794L367.5 799.16L366.77 804.25L365.84 809.29L364.72 814.25L363.41 819.14L361.92 823.94L360.24 828.67L358.38 833.31L356.35 837.85L354.15 842.31L351.78 846.66L349.26 850.91L346.57 855.05L343.74 859.08L340.75 862.99L337.62 866.79L334.35 870.45L330.94 874L327.4 877.4L323.73 880.68L319.93 883.81L316.02 886.79L311.99 889.63L307.85 892.32L303.6 894.84L299.25 897.21L294.8 899.41L290.25 901.44L285.61 903.3L280.89 904.97L276.08 906.47L271.19 907.78L266.23 908.9L261.2 909.83L256.1 910.55L250.94 911.08L245.72 911.4L240.45 911.5L235.17 911.4L229.95 911.08L224.79 910.55L219.7 909.83L214.66 908.9L209.7 907.78L204.81 906.47L200.01 904.97L195.28 903.3L190.64 901.44L186.1 899.41L181.64 897.21L177.29 894.84L173.04 892.32L168.9 889.63L164.87 886.79L160.96 883.81L157.16 880.68L153.49 877.4L149.95 874L146.55 870.45L143.27 866.79L140.14 862.99L137.16 859.08L134.32 855.05L131.63 850.91L129.11 846.66L126.74 842.31L124.54 837.85L122.51 833.31L120.65 828.67L118.98 823.94L117.48 819.14L116.17 814.25L115.05 809.29L114.12 804.25L113.4 799.16L112.87 794L112.55 788.78L112.45 783.5L112.55 778.23L112.87 773.01L113.4 767.85L114.12 762.75L115.05 757.72L116.17 752.76L117.48 747.87L118.98 743.06L120.65 738.34L122.51 733.7L124.54 729.15L126.74 724.7L129.11 720.35L131.63 716.1L134.32 711.96L137.16 707.93L140.14 704.02L143.27 700.22L146.55 696.55L149.95 693.01L153.49 689.6L157.16 686.33L160.96 683.2L164.87 680.21L168.9 677.38L173.04 674.69L177.29 672.17L181.64 669.8L186.1 667.6L190.64 665.57L195.28 663.71L200.01 662.03L204.81 660.54L209.7 659.23L214.66 658.11L219.7 657.18L224.79 656.45L229.95 655.93L235.17 655.61L240.45 655.5L245.72 655.61L250.94 655.93ZM269.82 700.24L268.53 700.37L267.26 700.56L266 700.79L264.76 701.07L263.54 701.39L262.34 701.77L261.15 702.19L260 702.65L258.86 703.16L257.75 703.71L256.66 704.3L255.59 704.93L254.56 705.6L253.55 706.31L252.57 707.06L251.63 707.84L250.71 708.66L249.82 709.51L248.97 710.4L248.15 711.32L247.37 712.26L246.62 713.24L245.91 714.25L245.24 715.28L244.61 716.35L244.02 717.44L243.47 718.55L242.96 719.69L242.5 720.84L242.08 722.03L241.7 723.23L241.38 724.45L241.1 725.69L240.87 726.95L240.68 728.22L240.55 729.51L240.47 730.82L240.45 732.14L240.47 733.45L240.55 734.76L240.68 736.05L240.87 737.32L241.1 738.58L241.38 739.82L241.7 741.04L242.08 742.25L242.5 743.43L242.96 744.59L243.47 745.72L244.02 746.84L244.61 747.92L245.24 748.99L245.91 750.02L246.62 751.03L247.37 752.01L248.15 752.96L248.97 753.87L249.82 754.76L250.71 755.61L251.63 756.43L252.57 757.21L253.55 757.96L254.56 758.67L255.59 759.34L256.66 759.97L257.75 760.56L258.86 761.11L260 761.62L261.15 762.08L262.34 762.5L263.54 762.88L264.76 763.21L266 763.49L267.26 763.72L268.53 763.9L269.82 764.03L271.13 764.11L272.45 764.14L273.76 764.11L275.07 764.03L276.36 763.9L277.63 763.72L278.89 763.49L280.13 763.21L281.35 762.88L282.56 762.5L283.74 762.08L284.9 761.62L286.03 761.11L287.15 760.56L288.23 759.97L289.3 759.34L290.33 758.67L291.34 757.96L292.32 757.21L293.27 756.43L294.18 755.61L295.07 754.76L295.92 753.87L296.74 752.96L297.52 752.01L298.27 751.03L298.98 750.02L299.65 748.99L300.28 747.92L300.87 746.84L301.42 745.72L301.93 744.59L302.39 743.43L302.81 742.25L303.19 741.04L303.52 739.82L303.8 738.58L304.03 737.32L304.21 736.05L304.34 734.76L304.42 733.45L304.45 732.14L304.42 730.82L304.34 729.51L304.21 728.22L304.03 726.95L303.8 725.69L303.52 724.45L303.19 723.23L302.81 722.03L302.39 720.84L301.93 719.69L301.42 718.55L300.87 717.44L300.28 716.35L299.65 715.28L298.98 714.25L298.27 713.24L297.52 712.26L296.74 711.32L295.92 710.4L295.07 709.51L294.18 708.66L293.27 707.84L292.32 707.06L291.34 706.31L290.33 705.6L289.3 704.93L288.23 704.3L287.15 703.71L286.03 703.16L284.9 702.65L283.74 702.19L282.56 701.77L281.35 701.39L280.13 701.07L278.89 700.79L277.63 700.56L276.36 700.37L275.07 700.24L273.76 700.16L272.45 700.14L271.13 700.16L269.82 700.24Z" id="o8zzc9aGnR"></path><path d="M138.49 384.42L143.65 384.95L148.75 385.68L153.78 386.6L158.74 387.72L163.63 389.03L168.44 390.53L173.17 392.21L177.8 394.07L182.35 396.1L186.8 398.3L191.15 400.66L195.4 403.19L199.55 405.87L203.57 408.71L207.49 411.7L211.28 414.83L214.95 418.1L218.49 421.51L221.9 425.05L225.17 428.72L228.3 432.51L231.29 436.43L234.13 440.45L236.81 444.6L239.34 448.85L241.7 453.2L243.9 457.65L245.93 462.2L247.79 466.83L249.47 471.56L250.97 476.37L252.28 481.26L253.4 486.22L254.32 491.25L255.05 496.35L255.58 501.51L255.89 506.73L256 512L255.89 517.27L255.58 522.49L255.05 527.65L254.32 532.75L253.4 537.78L252.28 542.74L250.97 547.63L249.47 552.44L247.79 557.17L245.93 561.8L243.9 566.35L241.7 570.8L239.34 575.15L236.81 579.4L234.13 583.55L231.29 587.57L228.3 591.49L225.17 595.28L221.9 598.95L218.49 602.49L214.95 605.9L211.28 609.17L207.49 612.3L203.57 615.29L199.55 618.13L195.4 620.81L191.15 623.34L186.8 625.7L182.35 627.9L177.8 629.93L173.17 631.79L168.44 633.47L163.63 634.97L158.74 636.28L153.78 637.4L148.75 638.32L143.65 639.05L138.49 639.58L133.27 639.89L128 640L122.73 639.89L117.51 639.58L112.35 639.05L107.25 638.32L102.22 637.4L97.26 636.28L92.37 634.97L87.56 633.47L82.83 631.79L78.2 629.93L73.65 627.9L69.2 625.7L64.85 623.34L60.6 620.81L56.45 618.13L52.43 615.29L48.51 612.3L44.72 609.17L41.05 605.9L37.51 602.49L34.1 598.95L30.83 595.28L27.7 591.49L24.71 587.57L21.87 583.55L19.19 579.4L16.66 575.15L14.3 570.8L12.1 566.35L10.07 561.8L8.21 557.17L6.53 552.44L5.03 547.63L3.72 542.74L2.6 537.78L1.68 532.75L0.95 527.65L0.42 522.49L0.11 517.27L0 512L0.11 506.73L0.42 501.51L0.95 496.35L1.68 491.25L2.6 486.22L3.72 481.26L5.03 476.37L6.53 471.56L8.21 466.83L10.07 462.2L12.1 457.65L14.3 453.2L16.66 448.85L19.19 444.6L21.87 440.45L24.71 436.43L27.7 432.51L30.83 428.72L34.1 425.05L37.51 421.51L41.05 418.1L44.72 414.83L48.51 411.7L52.43 408.71L56.45 405.87L60.6 403.19L64.85 400.66L69.2 398.3L73.65 396.1L78.2 394.07L82.83 392.21L87.56 390.53L92.37 389.03L97.26 387.72L102.22 386.6L107.25 385.68L112.35 384.95L117.51 384.42L122.73 384.11L128 384L133.27 384.11L138.49 384.42ZM157.38 430.17L156.09 430.3L154.81 430.48L153.55 430.71L152.31 430.99L151.09 431.32L149.89 431.69L148.71 432.11L147.55 432.58L146.41 433.08L145.3 433.63L144.21 434.23L143.15 434.86L142.11 435.53L141.11 436.24L140.13 436.98L139.18 437.77L138.26 438.59L137.38 439.44L136.52 440.32L135.71 441.24L134.92 442.19L134.18 443.17L133.47 444.17L132.8 445.21L132.17 446.27L131.57 447.36L131.02 448.47L130.52 449.61L130.05 450.77L129.63 451.95L129.26 453.15L128.93 454.37L128.65 455.61L128.42 456.87L128.24 458.15L128.11 459.44L128.03 460.74L128 462.06L128.03 463.38L128.11 464.68L128.24 465.97L128.42 467.25L128.65 468.51L128.93 469.75L129.26 470.97L129.63 472.17L130.05 473.35L130.52 474.51L131.02 475.65L131.57 476.76L132.17 477.85L132.8 478.91L133.47 479.95L134.18 480.95L134.92 481.93L135.71 482.88L136.52 483.8L137.38 484.68L138.26 485.54L139.18 486.35L140.13 487.14L141.11 487.88L142.11 488.59L143.15 489.26L144.21 489.9L145.3 490.49L146.41 491.04L147.55 491.54L148.71 492.01L149.89 492.43L151.09 492.8L152.31 493.13L153.55 493.41L154.81 493.64L156.09 493.82L157.38 493.95L158.68 494.03L160 494.06L161.32 494.03L162.62 493.95L163.91 493.82L165.19 493.64L166.45 493.41L167.69 493.13L168.91 492.8L170.11 492.43L171.29 492.01L172.45 491.54L173.59 491.04L174.7 490.49L175.79 489.9L176.85 489.26L177.89 488.59L178.89 487.88L179.87 487.14L180.82 486.35L181.74 485.54L182.62 484.68L183.48 483.8L184.29 482.88L185.08 481.93L185.82 480.95L186.53 479.95L187.2 478.91L187.83 477.85L188.43 476.76L188.98 475.65L189.48 474.51L189.95 473.35L190.37 472.17L190.74 470.97L191.07 469.75L191.35 468.51L191.58 467.25L191.76 465.97L191.89 464.68L191.97 463.38L192 462.06L191.97 460.74L191.89 459.44L191.76 458.15L191.58 456.87L191.35 455.61L191.07 454.37L190.74 453.15L190.37 451.95L189.95 450.77L189.48 449.61L188.98 448.47L188.43 447.36L187.83 446.27L187.2 445.21L186.53 444.17L185.82 443.17L185.08 442.19L184.29 441.24L183.48 440.32L182.62 439.44L181.74 438.59L180.82 437.77L179.87 436.98L178.89 436.24L177.89 435.53L176.85 434.86L175.79 434.23L174.7 433.63L173.59 433.08L172.45 432.58L171.29 432.11L170.11 431.69L168.91 431.32L167.69 430.99L166.45 430.71L165.19 430.48L163.91 430.3L162.62 430.17L161.32 430.09L160 430.06L158.68 430.09L157.38 430.17Z" id="b2J1aIEVCH"></path><path d="M250.94 112.87L256.1 113.4L261.2 114.12L266.23 115.05L271.19 116.17L276.08 117.48L280.89 118.98L285.61 120.65L290.25 122.51L294.8 124.54L299.25 126.74L303.6 129.11L307.85 131.63L311.99 134.32L316.02 137.16L319.93 140.14L323.73 143.27L327.4 146.55L330.94 149.95L334.35 153.49L337.62 157.16L340.75 160.96L343.74 164.87L346.57 168.9L349.26 173.04L351.78 177.29L354.15 181.64L356.35 186.1L358.38 190.64L360.24 195.28L361.92 200.01L363.41 204.81L364.72 209.7L365.84 214.66L366.77 219.7L367.5 224.79L368.02 229.95L368.34 235.17L368.45 240.45L368.34 245.72L368.02 250.94L367.5 256.1L366.77 261.2L365.84 266.23L364.72 271.19L363.41 276.08L361.92 280.89L360.24 285.61L358.38 290.25L356.35 294.8L354.15 299.25L351.78 303.6L349.26 307.85L346.57 311.99L343.74 316.02L340.75 319.93L337.62 323.73L334.35 327.4L330.94 330.94L327.4 334.35L323.73 337.62L319.93 340.75L316.02 343.74L311.99 346.57L307.85 349.26L303.6 351.78L299.25 354.15L294.8 356.35L290.25 358.38L285.61 360.24L280.89 361.92L276.08 363.41L271.19 364.72L266.23 365.84L261.2 366.77L256.1 367.5L250.94 368.02L245.72 368.34L240.45 368.45L235.17 368.34L229.95 368.02L224.79 367.5L219.7 366.77L214.66 365.84L209.7 364.72L204.81 363.41L200.01 361.92L195.28 360.24L190.64 358.38L186.1 356.35L181.64 354.15L177.29 351.78L173.04 349.26L168.9 346.57L164.87 343.74L160.96 340.75L157.16 337.62L153.49 334.35L149.95 330.94L146.55 327.4L143.27 323.73L140.14 319.93L137.16 316.02L134.32 311.99L131.63 307.85L129.11 303.6L126.74 299.25L124.54 294.8L122.51 290.25L120.65 285.61L118.98 280.89L117.48 276.08L116.17 271.19L115.05 266.23L114.12 261.2L113.4 256.1L112.87 250.94L112.55 245.72L112.45 240.45L112.55 235.17L112.87 229.95L113.4 224.79L114.12 219.7L115.05 214.66L116.17 209.7L117.48 204.81L118.98 200.01L120.65 195.28L122.51 190.64L124.54 186.1L126.74 181.64L129.11 177.29L131.63 173.04L134.32 168.9L137.16 164.87L140.14 160.96L143.27 157.16L146.55 153.49L149.95 149.95L153.49 146.55L157.16 143.27L160.96 140.14L164.87 137.16L168.9 134.32L173.04 131.63L177.29 129.11L181.64 126.74L186.1 124.54L190.64 122.51L195.28 120.65L200.01 118.98L204.81 117.48L209.7 116.17L214.66 115.05L219.7 114.12L224.79 113.4L229.95 112.87L235.17 112.55L240.45 112.45L245.72 112.55L250.94 112.87ZM269.82 158.61L268.53 158.74L267.26 158.93L266 159.16L264.76 159.44L263.54 159.76L262.34 160.14L261.15 160.56L260 161.02L258.86 161.53L257.75 162.08L256.66 162.67L255.59 163.3L254.56 163.97L253.55 164.68L252.57 165.43L251.63 166.21L250.71 167.03L249.82 167.88L248.97 168.77L248.15 169.69L247.37 170.63L246.62 171.61L245.91 172.62L245.24 173.66L244.61 174.72L244.02 175.81L243.47 176.92L242.96 178.06L242.5 179.22L242.08 180.4L241.7 181.6L241.38 182.82L241.1 184.06L240.87 185.32L240.68 186.59L240.55 187.88L240.47 189.19L240.45 190.51L240.47 191.82L240.55 193.13L240.68 194.42L240.87 195.69L241.1 196.95L241.38 198.19L241.7 199.41L242.08 200.62L242.5 201.8L242.96 202.96L243.47 204.09L244.02 205.21L244.61 206.3L245.24 207.36L245.91 208.39L246.62 209.4L247.37 210.38L248.15 211.33L248.97 212.24L249.82 213.13L250.71 213.98L251.63 214.8L252.57 215.58L253.55 216.33L254.56 217.04L255.59 217.71L256.66 218.34L257.75 218.93L258.86 219.48L260 219.99L261.15 220.45L262.34 220.87L263.54 221.25L264.76 221.58L266 221.86L267.26 222.09L268.53 222.27L269.82 222.4L271.13 222.48L272.45 222.51L273.76 222.48L275.07 222.4L276.36 222.27L277.63 222.09L278.89 221.86L280.13 221.58L281.35 221.25L282.56 220.87L283.74 220.45L284.9 219.99L286.03 219.48L287.15 218.93L288.23 218.34L289.3 217.71L290.33 217.04L291.34 216.33L292.32 215.58L293.27 214.8L294.18 213.98L295.07 213.13L295.92 212.24L296.74 211.33L297.52 210.38L298.27 209.4L298.98 208.39L299.65 207.36L300.28 206.3L300.87 205.21L301.42 204.09L301.93 202.96L302.39 201.8L302.81 200.62L303.19 199.41L303.52 198.19L303.8 196.95L304.03 195.69L304.21 194.42L304.34 193.13L304.42 191.82L304.45 190.51L304.42 189.19L304.34 187.88L304.21 186.59L304.03 185.32L303.8 184.06L303.52 182.82L303.19 181.6L302.81 180.4L302.39 179.22L301.93 178.06L301.42 176.92L300.87 175.81L300.28 174.72L299.65 173.66L298.98 172.62L298.27 171.61L297.52 170.63L296.74 169.69L295.92 168.77L295.07 167.88L294.18 167.03L293.27 166.21L292.32 165.43L291.34 164.68L290.33 163.97L289.3 163.3L288.23 162.67L287.15 162.08L286.03 161.53L284.9 161.02L283.74 160.56L282.56 160.14L281.35 159.76L280.13 159.44L278.89 159.16L277.63 158.93L276.36 158.74L275.07 158.61L273.76 158.53L272.45 158.51L271.13 158.53L269.82 158.61Z" id="fg6VFr1xW"></path></defs><g><g><g><use xlink:href="#a2oqWh94fw" opacity="1" fill="#ffa000" fill-opacity="1"></use></g><g><use xlink:href="#b19jxzDU00" opacity="1" fill="#ffa000" fill-opacity="1"></use></g><g><use xlink:href="#b56EVELFt3" opacity="1" fill="#ffa000" fill-opacity="1"></use></g><g><use xlink:href="#aikhrgvKF" opacity="1" fill="#ffa000" fill-opacity="1"></use></g><g><use xlink:href="#c1E9Bn5C89" opacity="1" fill="#ffa000" fill-opacity="1"></use></g><g><use xlink:href="#a2z6oFERVl" opacity="1" fill="#ffa000" fill-opacity="1"></use></g><g><use xlink:href="#o8zzc9aGnR" opacity="1" fill="#ffa000" fill-opacity="1"></use></g><g><use xlink:href="#b2J1aIEVCH" opacity="1" fill="#ffa000" fill-opacity="1"></use></g><g><use xlink:href="#fg6VFr1xW" opacity="1" fill="#ffa000" fill-opacity="1"></use></g></g></g></svg>