<?xml version="1.0" encoding="UTF-8" standalone="no"?>
<!DOCTYPE svg PUBLIC "-//W3C//DTD SVG 1.1//EN" "http://www.w3.org/Graphics/SVG/1.1/DTD/svg11.dtd">
<svg version="1.1" xmlns="http://www.w3.org/2000/svg" xmlns:xlink="http://www.w3.org/1999/xlink" preserveAspectRatio="xMidYMid meet" viewBox="0 0 24 24" width="24" height="24"><defs><path d="M14.12 9.88L14.76 10.83L15 12L14.76 13.17L14.12 14.12L13.17 14.76L12 15L10.83 14.76L9.88 14.12L9.24 13.17L9 12L9.24 10.83L9.88 9.88L10.83 9.24L12 9L13.17 9.24L14.12 9.88ZM12.22 10.3L12.06 10.54L12 10.83L12.06 11.12L12.22 11.36L12.46 11.52L12.75 11.58L13.04 11.52L13.28 11.36L13.44 11.12L13.5 10.83L13.44 10.54L13.28 10.3L13.04 10.14L12.75 10.08L12.46 10.14L12.22 10.3Z" id="g3fLK32GHy"></path><path d="M20.49 3.52L21.13 4.47L21.36 5.64L21.13 6.81L20.49 7.76L19.53 8.4L18.36 8.64L17.2 8.4L16.24 7.76L15.6 6.81L15.36 5.64L15.6 4.47L16.24 3.52L17.2 2.87L18.36 2.64L19.53 2.87L20.49 3.52ZM18.58 3.94L18.42 4.18L18.36 4.47L18.42 4.76L18.58 5L18.82 5.16L19.11 5.22L19.41 5.16L19.64 5L19.81 4.76L19.86 4.47L19.81 4.18L19.64 3.94L19.41 3.78L19.11 3.72L18.82 3.78L18.58 3.94Z" id="d7GvTI79r"></path><path d="M14.12 0.88L14.76 1.83L15 3L14.76 4.17L14.12 5.12L13.17 5.76L12 6L10.83 5.76L9.88 5.12L9.24 4.17L9 3L9.24 1.83L9.88 0.88L10.83 0.24L12 0L13.17 0.24L14.12 0.88ZM12.22 1.3L12.06 1.54L12 1.83L12.06 2.12L12.22 2.36L12.46 2.52L12.75 2.58L13.04 2.52L13.28 2.36L13.44 2.12L13.5 1.83L13.44 1.54L13.28 1.3L13.04 1.14L12.75 1.08L12.46 1.14L12.22 1.3Z" id="bdYVxqOWC"></path><path d="M23.12 9.88L23.76 10.83L24 12L23.76 13.17L23.12 14.12L22.17 14.76L21 15L19.83 14.76L18.88 14.12L18.24 13.17L18 12L18.24 10.83L18.88 9.88L19.83 9.24L21 9L22.17 9.24L23.12 9.88ZM21.22 10.3L21.06 10.54L21 10.83L21.06 11.12L21.22 11.36L21.46 11.52L21.75 11.58L22.04 11.52L22.28 11.36L22.44 11.12L22.5 10.83L22.44 10.54L22.28 10.3L22.04 10.14L21.75 10.08L21.46 10.14L21.22 10.3Z" id="f2aOgxlKwo"></path><path d="M20.48 16.24L21.13 17.2L21.36 18.36L21.13 19.53L20.48 20.49L19.53 21.13L18.36 21.36L17.2 21.13L16.24 20.49L15.6 19.53L15.36 18.36L15.6 17.2L16.24 16.24L17.2 15.6L18.36 15.36L19.53 15.6L20.48 16.24ZM18.58 16.66L18.42 16.9L18.36 17.19L18.42 17.49L18.58 17.72L18.82 17.89L19.11 17.94L19.41 17.89L19.64 17.72L19.8 17.49L19.86 17.19L19.8 16.9L19.64 16.66L19.41 16.5L19.11 16.44L18.82 16.5L18.58 16.66Z" id="fjS1CGXaL"></path><path d="M14.12 18.88L14.76 19.83L15 21L14.76 22.17L14.12 23.12L13.17 23.76L12 24L10.83 23.76L9.88 23.12L9.24 22.17L9 21L9.24 19.83L9.88 18.88L10.83 18.24L12 18L13.17 18.24L14.12 18.88ZM12.22 19.3L12.06 19.54L12 19.83L12.06 20.12L12.22 20.36L12.46 20.52L12.75 20.58L13.04 20.52L13.28 20.36L13.44 20.12L13.5 19.83L13.44 19.54L13.28 19.3L13.04 19.14L12.75 19.08L12.46 19.14L12.22 19.3Z" id="cKate8la4"></path><path d="M7.76 16.24L8.4 17.2L8.64 18.36L8.4 19.53L7.76 20.48L6.8 21.13L5.64 21.36L4.47 21.13L3.51 20.48L2.87 19.53L2.64 18.36L2.87 17.2L3.51 16.24L4.47 15.6L5.64 15.36L6.8 15.6L7.76 16.24ZM5.86 16.63L5.69 16.87L5.64 17.16L5.69 17.45L5.86 17.69L6.09 17.85L6.39 17.91L6.68 17.85L6.92 17.69L7.08 17.45L7.14 17.16L7.08 16.87L6.92 16.63L6.68 16.47L6.39 16.41L6.09 16.47L5.86 16.63Z" id="bMTmMA7Em"></path><path d="M5.12 9.88L5.76 10.83L6 12L5.76 13.17L5.12 14.12L4.17 14.76L3 15L1.83 14.76L0.88 14.12L0.24 13.17L0 12L0.24 10.83L0.88 9.88L1.83 9.24L3 9L4.17 9.24L5.12 9.88ZM3.22 10.3L3.06 10.54L3 10.83L3.06 11.12L3.22 11.36L3.46 11.52L3.75 11.58L4.04 11.52L4.28 11.36L4.44 11.12L4.5 10.83L4.44 10.54L4.28 10.3L4.04 10.14L3.75 10.08L3.46 10.14L3.22 10.3Z" id="cyT8QsBDh"></path><path d="M7.76 3.51L8.4 4.47L8.64 5.64L8.4 6.8L7.76 7.76L6.8 8.4L5.64 8.64L4.47 8.4L3.51 7.76L2.87 6.8L2.64 5.64L2.87 4.47L3.51 3.51L4.47 2.87L5.64 2.64L6.8 2.87L7.76 3.51ZM5.86 3.93L5.69 4.17L5.64 4.46L5.69 4.76L5.86 5L6.09 5.16L6.39 5.21L6.68 5.16L6.92 5L7.08 4.76L7.14 4.46L7.08 4.17L6.92 3.93L6.68 3.77L6.39 3.71L6.09 3.77L5.86 3.93Z" id="bgYG3wlng"></path></defs><g><g><g><g><use xlink:href="#g3fLK32GHy" opacity="1" fill="#ffc500" fill-opacity="1"></use></g><g><use xlink:href="#d7GvTI79r" opacity="1" fill="#ffc500" fill-opacity="1"></use></g><g><use xlink:href="#bdYVxqOWC" opacity="1" fill="#ffc500" fill-opacity="1"></use></g><g><use xlink:href="#f2aOgxlKwo" opacity="1" fill="#ffc500" fill-opacity="1"></use></g><g><use xlink:href="#fjS1CGXaL" opacity="1" fill="#ffc500" fill-opacity="1"></use></g><g><use xlink:href="#cKate8la4" opacity="1" fill="#ffc500" fill-opacity="1"></use></g><g><use xlink:href="#bMTmMA7Em" opacity="1" fill="#ffc500" fill-opacity="1"></use></g><g><use xlink:href="#cyT8QsBDh" opacity="1" fill="#ffc500" fill-opacity="1"></use></g><g><use xlink:href="#bgYG3wlng" opacity="1" fill="#ffc500" fill-opacity="1"></use></g></g></g></g></svg>